<?xml version="1.0" encoding="UTF-8" standalone="no"?>
<!-- Created with Inkscape (http://www.inkscape.org/) -->

<svg
   width="800mm"
   height="200mm"
   viewBox="0 0 800 200"
   version="1.1"
   id="svg5"
   inkscape:version="1.2.2 (b0a8486541, 2022-12-01)"
   sodipodi:docname="experience_with_raven.svg"
   inkscape:export-filename="experience_with_raven.svg.png"
   inkscape:export-xdpi="96"
   inkscape:export-ydpi="96"
   xmlns:inkscape="http://www.inkscape.org/namespaces/inkscape"
   xmlns:sodipodi="http://sodipodi.sourceforge.net/DTD/sodipodi-0.dtd"
   xmlns="http://www.w3.org/2000/svg"
   xmlns:svg="http://www.w3.org/2000/svg">
  <sodipodi:namedview
     id="namedview7"
     pagecolor="#ffffff"
     bordercolor="#000000"
     borderopacity="0.25"
     inkscape:showpageshadow="2"
     inkscape:pageopacity="0.0"
     inkscape:pagecheckerboard="0"
     inkscape:deskcolor="#d1d1d1"
     inkscape:document-units="mm"
     showgrid="false"
     inkscape:zoom="0.38339655"
     inkscape:cx="1553.2221"
     inkscape:cy="747.26807"
     inkscape:window-width="1920"
     inkscape:window-height="1012"
     inkscape:window-x="0"
     inkscape:window-y="0"
     inkscape:window-maximized="1"
     inkscape:current-layer="layer1" />
  <defs
     id="defs2" />
  <g
     inkscape:label="Layer 1"
     inkscape:groupmode="layer"
     id="layer1">
    <g
       id="g2161"
       transform="matrix(0.26458333,0,0,0.26458333,605.90603,11.803892)">
      <path
         id="path2159"
         style="fill:#ff0000"
         d="m 153.83,184.33 a 289.1,289.1 0 1 1 -578.2,0 289.1,289.1 0 1 1 578.2,0 z"
         transform="translate(320.93,164.44)" />
      <g
         id="layer1-3"
         transform="translate(-5.4832,-9.0863)">
        <g
           id="g3196"
           transform="translate(-199.29,-88.571)">
          <path
             id="path2221"
             style="fill:#000000;fill-rule:evenodd"
             d="m 517.25,0 c -7.93,-0.050211 -18.94,1.3307 -24.16,2.5938 -23.57,5.7107 -64.79,37.921 -97.25,61.344 -26.86,19.384 -63.77,23.094 -68.5,35.75 -4.48,11.992 -46.1,119.03 -55.68,131.81 -9.59,12.78 -39.54,-1.01 -53.38,3.25 -13.84,4.26 -33,-4.93 -34.06,-10.25 -1.07,-5.32 23.04,-16.3 -7.31,-7.91 -57.85,16 -48.97,8.5 -35.13,-6.4 13.84,-14.91 15.95,-11.69 -4.28,-11.69 -20.23,0 -65.214,52.55 -51.969,21.59 20.429,-47.75 6.5,-43.39 6.5,-47.65 0,-4.26 -23.158,31.52 -34.375,39.9 -10.407,7.79 -0.879,-7.51 1.25,-16.03 2.13,-8.51 9.171,-13.93 6.219,-17 -6.517,-6.77 -9.594,-44.71 -9.594,-34.06 0,10.65 -26.607,85.8 -31.812,84.69 -6.144,-1.32 -10.765,-42.09 -11.844,-46.35 -1.065,-4.2 -16.242,-10.4 -10.656,-2.12 4.8896,7.25 0.0202,106.44 5.3435,104.31 5.3235,-2.13 30.876,12.78 30.876,12.78 0,0 14.897,-3.18 19.156,-4.25 4.258,-1.06 101.15,45.77 106.47,51.1 5.33,5.32 -21.31,28.76 -22.37,36.21 -1.07,7.46 5.33,8.5 12.78,28.72 7.45,20.23 -1.57,61.42 3.75,60.36 5.33,-1.07 26.04,-42.52 30.3,-48.91 4.26,-6.39 19.19,-15.69 40.48,-18.88 21.29,-3.2 76.67,31.94 83.06,30.87 6.39,-1.06 11.51,10.03 9.38,28.13 -2.13,18.1 -19.23,18.67 -16.72,51.09 0.87,11.3 18.34,14.14 28.62,26.19 2.77,3.24 -5.34,-8.53 -7.46,-12.78 -2.13,-4.26 6.4,-7.44 6.4,-7.44 0,0 -10.65,-0.03 -13.84,-1.09 -3.2,-1.07 -9,-16.99 -2.13,-21.29 22.77,-14.22 27.68,1.07 34.07,0 6.38,-1.06 12.78,13.83 10.65,5.32 -2.13,-8.52 -13.85,-17.03 -24.5,-20.22 -10.65,-3.2 -5.03,-15.93 -4.12,-21.28 1.59,-9.31 7.05,-10.03 9.06,-2.87 2.62,9.32 17.58,22.44 14.35,16.45 -3.38,-6.26 -7.51,-17.26 -4.2,-16.74 2.11,0.33 16.86,6.64 12.6,4.22 -16.33,-9.28 -15.03,-14.1 -15.91,-23.76 2.13,-2.13 20.34,-3.52 25.9,-3.14 -1.94,-4.65 -28.08,-8.26 -30.21,-9.32 -2.13,-1.06 -1.06,-20.22 -1.06,-20.22 0,0 7.43,-2.12 10.62,-5.31 3.2,-3.2 17.93,0.49 21.13,2.62 3.19,2.13 17.7,-2.15 24.09,-4.28 6.39,-2.13 14.99,1.2 18.19,-5.18 3.19,-6.39 22.09,0 25.28,-2.13 3.19,-2.13 6.09,-11.71 8.22,-15.97 2.13,-4.26 29.81,-9.15 31.94,-11.28 2.13,-2.13 4.56,-9.87 4.56,-14.12 0,-4.26 23.09,-14.62 24.15,-17.82 1.07,-3.19 5.35,-6.36 4.29,-10.62 -1.07,-4.26 13.83,-14.9 19.15,-18.1 5.33,-3.19 9.6,-24.49 8.53,-27.68 -1.06,-3.2 -14.92,17.03 -20.25,18.09 -5.32,1.06 -43.63,9.59 -56.4,13.84 -12.78,4.26 -51.12,12.78 -56.44,13.85 -5.32,1.06 -14.9,-9.59 -15.97,-13.85 -1.06,-4.25 13.83,-6.4 6.38,-7.47 -7.46,-1.06 -48.96,-21.27 -53.22,-25.53 -4.26,-4.25 9.58,-11.71 13.84,-13.84 4.26,-2.13 7.44,-5.33 8.5,-10.66 1.07,-5.32 13.86,-11.72 22.38,-25.56 8.51,-13.84 19.15,-77.7 18.09,-86.22 -1.06,-8.51 18.27,-21.73 23.41,-31.93 5.35,-10.636 24.81,-30.668 37.34,-40.224 23.9,-18.232 58.37,-59.638 56.53,-63.687 -0.63,-1.3943 -4.27,-1.9389 -9.03,-1.969 z M 320.34,406.94 c 3.91,-0.08 8.1,1.25 8.1,1.25 4.64,-3.44 0.62,3.41 1.99,13.96 1.21,9.33 3.97,8.86 -11.28,0.47 -7.85,-4.32 -15.25,1.78 -5.31,-11.71 1.82,-2.47 3.46,-3.91 6.5,-3.97 z"
             transform="translate(204.77,97.658)" />
        </g>
      </g>
    </g>
    <path
       style="fill:#ff6600;fill-opacity:1;stroke-width:0.252276"
       d="m 646.90443,180.0169 c -4.18864,-0.46974 -5.98796,-0.78898 -10.03485,-1.78042 -22.37107,-5.48068 -40.88873,-20.59193 -50.86239,-41.50602 -3.66006,-7.67491 -6.01947,-16.10527 -6.98279,-24.95008 -0.37128,-3.40897 -0.37128,-11.979835 0,-15.388811 1.94902,-17.895184 9.49746,-33.723966 22.08079,-46.302549 11.69825,-11.693834 26.2252,-19.012021 42.89807,-21.610594 4.83116,-0.752968 16.5399,-0.819789 21.17288,-0.120833 6.07918,0.917141 10.99439,2.135562 16.16391,4.006846 3.1522,1.141044 11.22627,4.959966 11.22627,5.309867 0,0.381632 -8.11706,20.640806 -10.33049,25.783621 -1.13187,2.629863 -2.59901,5.865299 -3.2603,7.189856 -1.88205,3.769688 -2.8782,4.16987 -8.60947,3.458657 -3.94867,-0.490006 -5.41472,-0.52084 -7.3912,-0.155469 -1.65753,0.306411 -3.78959,0.0066 -5.6727,-0.79765 -1.23673,-0.528206 -2.57719,-1.62642 -2.57719,-2.111454 0,-0.154009 0.4541,-0.723432 1.0091,-1.265381 0.97366,-0.950751 1.28877,-1.639792 0.74991,-1.639792 -0.14255,0 -2.89551,0.669512 -6.11768,1.487805 -6.71258,1.704702 -9.16923,2.080567 -9.41486,1.440463 -0.21428,-0.558393 0.20471,-1.126212 3.0446,-4.126119 1.94676,-2.056447 2.36087,-2.618605 2.02416,-2.747811 -0.23282,-0.08934 -1.46153,-0.09518 -2.73045,-0.01297 -2.95047,0.19115 -4.60775,0.996619 -9.28962,4.514924 -4.39198,3.300444 -5.03664,3.732392 -5.57039,3.732392 -0.66073,0 -0.56906,-0.440079 0.8135,-3.905538 2.36823,-5.936084 2.83392,-9.196962 1.51408,-10.601876 -0.55901,-0.595029 -0.61543,-0.605655 -1.06342,-0.200228 -0.26021,0.235479 -1.68623,2.014323 -3.16894,3.952986 -2.91163,3.806981 -5.61056,6.718247 -6.22824,6.718247 -0.21218,0 -0.38579,-0.03643 -0.38579,-0.08094 0,-0.338328 2.22825,-5.88894 2.82572,-7.038898 l 0.75004,-1.443644 -0.68092,-1.391758 c -0.41234,-0.842783 -0.93027,-2.711329 -1.31307,-4.737116 -0.72669,-3.845692 -0.86169,-4.335002 -0.99261,-3.597627 -0.41593,2.342711 -0.8189,3.844856 -2.03033,7.568271 -2.56732,7.890851 -5.49761,14.758125 -6.29736,14.758125 -0.71194,0 -1.43999,-2.542691 -2.46896,-8.622731 -0.32614,-1.927114 -0.74554,-3.688675 -0.93202,-3.914585 -0.18647,-0.225906 -0.83357,-0.629986 -1.438,-0.897953 -1.29019,-0.571982 -1.82366,-0.327025 -1.36589,0.627182 0.15112,0.314997 0.35578,0.799766 0.45481,1.077269 0.099,0.277503 0.25886,6.180754 0.35518,13.118336 0.12057,8.683302 0.26513,12.779904 0.46393,13.146899 0.1991,0.367541 0.62477,0.578006 1.37056,0.677648 0.59496,0.0795 2.48105,0.841015 4.19131,1.69227 l 3.10956,1.547736 2.51468,-0.547087 c 1.46936,-0.31967 2.79845,-0.476171 3.19734,-0.376492 1.22429,0.305949 10.6133,4.65286 17.96353,8.316728 7.52005,3.748517 9.27084,4.726017 9.49064,5.298827 0.20829,0.54279 -0.51461,1.71262 -2.85819,4.62524 -1.19609,1.48652 -2.38261,3.04332 -2.63671,3.45958 -0.60776,0.99561 -0.58493,2.34042 0.0557,3.27958 0.74087,1.08614 2.23671,4.05678 2.85821,5.67621 0.49637,1.29337 0.5325,1.86961 0.5325,8.49302 0,3.90804 0.0845,7.19008 0.18766,7.29343 0.53124,0.53195 2.24042,-1.94378 5.84779,-8.47046 2.71488,-4.91195 3.62974,-5.97506 6.23264,-7.24266 2.06873,-1.00746 3.68116,-1.54332 5.97502,-1.98568 3.33184,-0.64254 6.04832,0.19541 15.77378,4.86567 3.30786,1.58846 6.42977,2.9511 6.93758,3.02808 1.93177,0.29284 2.70541,1.96247 2.66497,5.75143 -0.0272,2.55161 -0.45898,3.83541 -1.99232,5.92423 -2.37645,3.23738 -3.28261,8.09513 -1.98652,10.64943 0.19744,0.38912 1.44966,1.40989 2.91414,2.37551 1.41235,0.93127 3.02518,2.10004 3.58407,2.59728 l 1.01614,0.90407 -0.59834,-1.00911 c -1.90058,-3.20534 -1.87344,-3.13403 -1.39425,-3.66353 0.24197,-0.26737 0.6804,-0.56582 0.97429,-0.66322 0.51662,-0.17121 0.51343,-0.18315 -0.0963,-0.35971 -0.34688,-0.10044 -1.14155,-0.19567 -1.76593,-0.21163 -0.62438,-0.016 -1.2613,-0.11241 -1.41538,-0.21435 -0.51315,-0.3395 -1.13258,-1.83727 -1.28216,-3.1002 -0.13966,-1.17926 -0.0998,-1.29307 0.72378,-2.06771 1.91733,-1.80337 4.95602,-2.20345 7.18426,-0.94591 0.73756,0.41625 1.64413,0.75682 2.0146,0.75682 0.45766,0 0.98127,0.32347 1.6335,1.00911 1.13045,1.18834 1.34795,1.25143 1.11503,0.32344 -0.45254,-1.80309 -3.11028,-4.19816 -5.71072,-5.14633 -2.49147,-0.90844 -2.86258,-1.7932 -2.10334,-5.01462 0.43067,-1.82731 0.94494,-2.77628 1.50456,-2.77628 0.21166,0 0.71088,0.7153 1.15447,1.65417 0.73961,1.56537 3.34869,4.64236 3.66673,4.32431 0.0774,-0.0774 -0.14543,-0.85828 -0.49527,-1.73519 -0.34984,-0.87692 -0.71368,-1.90658 -0.80855,-2.28815 -0.21403,-0.86085 0.11366,-0.89348 1.90041,-0.18921 1.70433,0.67178 2.11542,0.62609 0.92889,-0.10324 -2.20356,-1.35448 -3.11838,-2.63921 -3.24492,-4.55706 -0.077,-1.16671 -0.0468,-1.23102 0.67624,-1.44066 0.41626,-0.12069 1.92045,-0.29027 3.34265,-0.37683 1.42221,-0.0866 2.58583,-0.24088 2.58583,-0.34291 0,-0.39104 -1.94585,-1.07884 -4.85276,-1.71532 -3.51848,-0.77038 -3.47234,-0.71989 -3.47234,-3.79907 v -1.95895 l 1.89299,-0.96083 c 2.15384,-1.09323 3.03566,-1.11477 5.84449,-0.14271 1.66464,0.57608 1.9722,0.54719 6.5161,-0.61194 0.83251,-0.21237 2.18775,-0.45423 3.01165,-0.53747 1.25267,-0.12656 1.62003,-0.28169 2.24314,-0.94717 l 0.74513,-0.79582 h 3.18079 3.1808 l 1.06434,-2.19689 c 1.22038,-2.51893 1.353,-2.61685 4.83667,-3.57127 l 2.36914,-0.64907 -0.17481,2.31573 c -0.25463,3.37308 -1.31015,9.32724 -2.28226,12.87418 -3.6759,13.41227 -10.57222,25.10938 -20.49189,34.75708 -4.01283,3.9028 -6.50029,5.91201 -11.17945,9.03002 -10.53292,7.01872 -22.4686,11.22324 -35.19245,12.39705 -3.70304,0.34162 -11.41791,0.27684 -15.0104,-0.12604 z"
       id="path4526"
       inkscape:connector-curvature="0" />
    <path
       style="fill:#ff6600;fill-opacity:1;stroke-width:0.252276"
       d="m 712.33264,95.893964 c -1.19816,-0.881136 -2.47518,-2.620674 -2.28593,-3.113857 0.0729,-0.190011 0.53551,-0.536678 1.02799,-0.770374 0.49248,-0.233699 0.95188,-0.516271 1.0209,-0.627941 0.069,-0.111673 -0.51644,-0.405387 -1.30101,-0.652701 -3.02805,-0.954508 -11.44122,-5.084117 -12.88122,-6.322753 -0.61929,-0.532685 -0.63321,-0.595617 -0.25735,-1.163471 0.21854,-0.330176 1.04602,-0.997656 1.83885,-1.483286 0.79283,-0.485632 1.80034,-1.110014 2.23892,-1.387517 0.46225,-0.292481 1.06898,-1.061334 1.4435,-1.829234 0.40577,-0.831958 1.59017,-2.28641 3.18426,-3.910274 1.50516,-1.533284 2.80502,-3.115379 3.19386,-3.887322 0.9424,-1.870945 2.04754,-5.842251 3.07438,-11.047735 0.49136,-2.490906 0.91772,-4.553159 0.94746,-4.582784 0.11204,-0.111586 2.89863,3.565713 4.66916,6.161614 3.91416,5.738849 6.97419,11.950787 9.22816,18.733394 1.33467,4.016298 2.56702,8.913352 2.85505,11.345327 l 0.14027,1.184339 -1.73397,0.52275 c -3.29538,0.993479 -14.17307,3.581705 -15.05303,3.581705 -0.18181,0 -0.78942,-0.337447 -1.35025,-0.74988 z"
       id="path4528"
       inkscape:connector-curvature="0" />
    <path
       style="fill:#ff662e;fill-opacity:1;stroke-width:0.252276"
       d="m 691.45642,124.16288 c -0.95732,-0.53772 -2.1777,-1.04757 -2.71196,-1.133 -0.53426,-0.0854 -0.97138,-0.24528 -0.97138,-0.35523 0,-0.42968 1.50841,-2.54861 2.00253,-2.81305 0.2875,-0.15387 1.19305,-0.24709 2.01233,-0.20715 l 1.4896,0.0726 -0.0384,2.01821 c -0.0211,1.11001 0.0481,2.33039 0.15375,2.71196 0.10567,0.38157 0.10482,0.69141 -0.002,0.68854 -0.10671,-0.003 -0.97728,-0.44518 -1.9346,-0.9829 z"
       id="path4530"
       inkscape:connector-curvature="0" />
    <path
       style="fill:#ff2900;fill-opacity:1;stroke-width:0.252276"
       d="m 649.8056,180.13749 c -9.82038,-0.54878 -20.00932,-3.34351 -29.39012,-8.06143 -12.36921,-6.22091 -23.44811,-16.55166 -30.70883,-28.63508 -5.86175,-9.75523 -9.64168,-21.20424 -10.66108,-32.29129 -0.32736,-3.56042 -0.32736,-10.567 0,-14.127431 1.19072,-12.950304 6.21548,-26.518251 13.68721,-36.958386 11.54797,-16.135821 28.58767,-27.135619 47.85532,-30.892507 5.1257,-0.99943 8.39812,-1.213426 16.48352,-1.077921 8.07817,0.135383 10.08987,0.383256 16.8263,2.073267 5.6239,1.410903 9.79565,2.998991 15.83649,6.028588 l 2.81163,1.410084 -0.33842,0.949012 c -1.54122,4.321974 -9.92025,24.769548 -12.14079,29.627481 -2.74769,6.011211 -3.43702,6.504659 -8.31325,5.950944 -1.38752,-0.157556 -4.86092,-0.293994 -7.71867,-0.303196 l -5.19591,-0.01672 -1.71654,-0.882965 c -0.94409,-0.485632 -1.87878,-1.131136 -2.07708,-1.434457 -0.33466,-0.511921 -0.28669,-0.631605 0.66863,-1.668004 1.06227,-1.152422 1.28108,-1.690778 0.6872,-1.690778 -0.18808,0 -2.64186,0.569558 -5.45284,1.265685 -8.55786,2.119312 -10.54707,2.314215 -9.82367,0.962533 0.15472,-0.289097 1.34817,-1.693151 2.6521,-3.120115 1.30394,-1.426967 2.3708,-2.733416 2.3708,-2.903225 0,-0.230989 -0.63532,-0.278151 -2.52271,-0.187267 -2.26699,0.109162 -2.70811,0.214162 -4.35175,1.035817 -1.00598,0.502889 -3.36163,2.051984 -5.23477,3.442433 -4.1505,3.080946 -5.51098,3.932828 -5.80741,3.636396 -0.13041,-0.130407 0.0463,-0.961117 0.42317,-1.988891 2.52316,-6.881707 2.70265,-7.517156 2.71919,-9.626827 0.0145,-1.843763 -0.0479,-2.127851 -0.59509,-2.711588 -0.58589,-0.625004 -0.6315,-0.633754 -1.09965,-0.210944 -0.26863,0.242607 -1.62815,1.9036 -3.02116,3.691096 -2.70934,3.476604 -5.92673,6.967175 -6.42189,6.967175 -0.22809,0 -0.21886,-0.232053 0.0376,-0.946034 0.68441,-1.905299 1.45172,-3.766505 2.34157,-5.679765 l 0.91099,-1.958703 -0.53897,-1.194744 c -0.65688,-1.456132 -1.1472,-3.245075 -1.71035,-6.240259 -0.23479,-1.248764 -0.50341,-2.357191 -0.59692,-2.46317 -0.0935,-0.105979 -0.31924,0.575167 -0.5016,1.513655 -0.97341,5.009493 -6.64244,20.142125 -7.81784,20.86856 -0.67661,0.418171 -1.33694,-1.683403 -2.51868,-8.015981 -0.40955,-2.194668 -0.89411,-4.171407 -1.07679,-4.392755 -0.49769,-0.603009 -2.48543,-1.421545 -2.76738,-1.139589 -0.1482,0.148193 -0.0926,0.796425 0.14818,1.726517 0.30197,1.166651 0.43406,4.143595 0.6098,13.743164 0.14693,8.02648 0.32028,12.433216 0.50246,12.773631 0.1699,0.317463 0.64895,0.586478 1.23101,0.691296 0.52408,0.09438 2.39538,0.862004 4.15846,1.705845 l 3.20558,1.53425 2.09221,-0.415303 c 3.19193,-0.633598 3.72466,-0.566394 6.98947,0.881713 9.12124,4.045738 23.66425,11.348363 23.92059,12.011483 0.26275,0.67973 -0.27149,1.64694 -2.49119,4.51019 -2.85075,3.67724 -3.24118,4.3111 -3.24303,5.26493 -7.9e-4,0.44255 0.75824,2.25235 1.82806,4.35837 l 1.82952,3.60154 0.12614,7.54098 c 0.0694,4.14754 0.22259,7.63543 0.34049,7.75086 0.52295,0.51203 2.03397,-1.76136 7.31987,-11.0131 1.35981,-2.38004 3.25673,-4.06621 5.7394,-5.10179 1.19543,-0.49863 3.05674,-1.1031 4.13626,-1.34327 3.91386,-0.87076 6.03286,-0.28974 16.11622,4.41894 3.20589,1.49707 6.39651,2.91298 7.09027,3.14647 0.69376,0.23349 1.51211,0.65918 1.81856,0.94598 0.77612,0.72639 1.16688,2.75656 1.04027,5.40474 -0.11457,2.39627 -0.26194,2.76949 -2.57729,6.52695 -1.23647,2.00659 -1.75776,3.85542 -1.77829,6.30689 -0.0222,2.65221 0.31252,3.37167 2.19145,4.71024 0.84312,0.60065 2.48648,1.80048 3.65191,2.66627 l 2.11896,1.57418 -1.02537,-1.85751 c -0.56396,-1.02163 -1.02537,-2.03928 -1.02537,-2.26145 0,-0.22217 0.3682,-0.59436 0.81822,-0.82707 0.74648,-0.38602 0.77414,-0.44034 0.31535,-0.61944 -0.27659,-0.10797 -1.04212,-0.20429 -1.70119,-0.21404 -1.48586,-0.022 -2.03714,-0.5193 -2.57193,-2.32011 -0.52217,-1.75835 -0.51244,-1.83194 0.37627,-2.84412 1.60193,-1.8245 4.81786,-2.30163 7.23279,-1.07309 0.72383,0.36824 1.54941,0.66952 1.83463,0.66952 0.28522,0 1.02922,0.47069 1.65334,1.04599 0.62412,0.57529 1.20052,0.98023 1.28088,0.89987 0.0804,-0.0804 0.0168,-0.5381 -0.14135,-1.01719 -0.45477,-1.37796 -2.93005,-3.54363 -5.39568,-4.72079 -1.78075,-0.85017 -2.19356,-1.15959 -2.42222,-1.81551 -0.46569,-1.33588 0.52707,-5.51262 1.38888,-5.84333 0.36346,-0.13947 0.49954,0.0311 1.68863,2.11676 0.80471,1.41146 3.09439,3.97181 3.33963,3.73442 0.0999,-0.0967 -0.16807,-1.14242 -0.59554,-2.32379 -0.42747,-1.18137 -0.68075,-2.20756 -0.56284,-2.28043 0.1179,-0.0729 0.8707,0.0933 1.67288,0.3693 0.80218,0.276 1.49965,0.46066 1.54994,0.41037 0.0503,-0.0503 -0.54683,-0.57332 -1.32693,-1.1623 -0.90985,-0.68695 -1.58861,-1.4458 -1.89321,-2.11664 -0.51256,-1.12879 -0.64145,-2.81193 -0.2346,-3.06338 0.13824,-0.0854 1.61406,-0.28355 3.27959,-0.44024 1.66553,-0.1567 3.02824,-0.37331 3.02824,-0.48137 0,-0.3673 -1.02542,-0.74671 -4.33898,-1.60542 -1.81954,-0.47153 -3.4324,-0.98134 -3.58412,-1.1329 -0.15172,-0.15157 -0.31473,-1.2701 -0.36223,-2.48564 l -0.0864,-2.21007 1.84886,-0.85219 c 2.18434,-1.00683 3.31331,-1.05556 5.86453,-0.25312 l 1.7383,0.54675 3.43335,-0.7615 c 1.88835,-0.41883 3.97738,-0.83333 4.64231,-0.92111 0.82235,-0.10856 1.47839,-0.39616 2.05151,-0.89937 0.83492,-0.73307 0.87086,-0.73977 3.96954,-0.73977 h 3.12699 l 1.05833,-2.13394 c 0.58433,-1.17821 1.34224,-2.31997 1.69224,-2.5493 0.34865,-0.22844 1.71409,-0.73154 3.0343,-1.11799 l 2.4004,-0.70265 v 0.5799 c 0,1.32052 -0.83614,7.05348 -1.53025,10.49209 -1.71687,8.50536 -5.3963,17.55177 -10.18542,25.04229 -13.07173,20.4451 -34.8534,33.49155 -58.79786,35.21784 -3.84386,0.27712 -5.84237,0.27657 -10.84537,-0.003 z"
       id="path4532"
       inkscape:connector-curvature="0" />
    <path
       style="fill:#ff2900;fill-opacity:1;stroke-width:0.252276"
       d="m 712.87451,96.178606 c -1.09092,-0.667899 -2.6489,-2.476995 -2.6489,-3.075856 0,-0.318108 0.33474,-0.709829 0.88297,-1.033295 0.48563,-0.286528 0.88296,-0.613347 0.88296,-0.726263 0,-0.112916 -0.82304,-0.513792 -1.82899,-0.890836 -2.51925,-0.944248 -9.65185,-4.390311 -11.24301,-5.43197 -1.95774,-1.28165 -1.82884,-1.582402 1.66357,-3.881282 1.51819,-0.999355 2.10396,-1.568645 2.73611,-2.659107 0.44239,-0.763135 1.80961,-2.465996 3.03827,-3.784134 1.22866,-1.318141 2.4872,-2.753439 2.79673,-3.189555 0.88745,-1.250331 2.20998,-5.590032 3.33334,-10.937883 0.56834,-2.705655 1.06369,-5.020997 1.10077,-5.145203 0.10595,-0.354886 2.53762,2.824659 5.12947,6.707071 2.56752,3.845962 6.01139,10.558009 7.63478,14.880057 1.67309,4.454353 4.05509,13.361705 4.05509,15.163766 0,0.258281 -0.8972,0.617765 -2.96424,1.187691 -2.52611,0.696497 -13.3099,3.281312 -13.68596,3.280444 -0.0694,-1.61e-4 -0.46671,-0.208801 -0.88296,-0.463645 z"
       id="path4534"
       inkscape:connector-curvature="0" />
    <path
       style="fill:#ff2900;fill-opacity:1;stroke-width:0.252276"
       d="m 690.93822,123.8712 c -1.10359,-0.54488 -2.19153,-0.99069 -2.41764,-0.99069 -0.67908,0 -0.73016,-0.25282 -0.2243,-1.11019 1.00756,-1.70768 1.8465,-2.10454 4.1439,-1.96025 l 0.75683,0.0475 0.0341,2.52056 c 0.0188,1.38631 -0.038,2.51227 -0.12614,2.50214 -0.0881,-0.0101 -1.06316,-0.46422 -2.16674,-1.0091 z"
       id="path4536"
       inkscape:connector-curvature="0" />
    <text
       xml:space="preserve"
       style="font-style:italic;font-weight:bold;font-size:25.4px;font-family:sans-serif;-inkscape-font-specification:'sans-serif Bold Italic';fill:#ff2900;fill-opacity:1;stroke-width:0.264999;stroke-linecap:round;stroke-dasharray:0.264999, 0.264999"
       x="164.87006"
       y="109.22776"
       id="text843"><tspan
         sodipodi:role="line"
         id="tspan841"
         style="font-size:25.4px;stroke-width:0.265"
         x="164.87006"
         y="109.22776">Experience with RAVEN !</tspan></text>
  </g>
</svg>
